<svg width="100" height="100" viewBox="0 0 100 100" fill="none" xmlns="http://www.w3.org/2000/svg">
<circle cx="50" cy="50" r="47.5" fill="#F5F5DC" stroke="#8B0000" stroke-width="5"/>
<path d="M14 75V28.4545H26.6364V64.8182H45.4545V75H14ZM68.4716 75H50.5625V28.4545H68.2898C73.0777 28.4545 77.214 29.3864 80.6989 31.25C84.1989 33.0985 86.8958 35.7651 88.7898 39.25C90.6989 42.7197 91.6534 46.8788 91.6534 51.7273C91.6534 56.5758 90.7064 60.7424 88.8125 64.2273C86.9186 67.697 84.2367 70.3636 80.767 72.2273C77.2973 74.0758 73.1989 75 68.4716 75ZM63.1989 64.2727H68.017C70.3201 64.2727 72.2822 63.9015 73.9034 63.1591C75.5398 62.4167 76.7822 61.1364 77.6307 59.3182C78.4943 57.5 78.9261 54.9697 78.9261 51.7273C78.9261 48.4848 78.4867 45.9545 77.608 44.1364C76.7443 42.3182 75.4716 41.0379 73.7898 40.2955C72.1231 39.553 70.0777 39.1818 67.6534 39.1818H63.1989V64.2727Z" fill="#0000FF"/>
</svg>
