<svg width="128" height="128" viewBox="0 0 128 128" xmlns="http://www.w3.org/2000/svg">
  <!-- Background circle -->
  <circle cx="64" cy="64" r="60" fill="#4CAF50" opacity="0.9"/>

  <!-- Book shape -->
  <path d="M 40 35 L 40 95 Q 40 100 45 100 L 85 100 Q 90 100 90 95 L 90 35 Q 90 30 85 30 L 45 30 Q 40 30 40 35 Z" fill="white" stroke="#2E7D32" stroke-width="2"/>

  <!-- Book spine line -->
  <line x1="64" y1="35" x2="64" y2="100" stroke="#2E7D32" stroke-width="2"/>

  <!-- Reading lines on left page -->
  <line x1="48" y1="50" x2="58" y2="50" stroke="#2E7D32" stroke-width="1.5" opacity="0.7"/>
  <line x1="48" y1="58" x2="58" y2="58" stroke="#2E7D32" stroke-width="1.5" opacity="0.7"/>
  <line x1="48" y1="66" x2="58" y2="66" stroke="#2E7D32" stroke-width="1.5" opacity="0.7"/>

  <!-- Reading lines on right page -->
  <line x1="70" y1="50" x2="80" y2="50" stroke="#2E7D32" stroke-width="1.5" opacity="0.7"/>
  <line x1="70" y1="58" x2="80" y2="58" stroke="#2E7D32" stroke-width="1.5" opacity="0.7"/>
  <line x1="70" y1="66" x2="80" y2="66" stroke="#2E7D32" stroke-width="1.5" opacity="0.7"/>

  <!-- YouTube play button symbol in bottom right -->
  <circle cx="95" cy="95" r="18" fill="#FF0000" opacity="0.85"/>
  <polygon points="88,90 88,100 102,95" fill="white"/>
</svg>
